<svg width="406" height="306" viewBox="0 0 406 306" fill="none" xmlns="http://www.w3.org/2000/svg">
<path d="M197.651 283.113L29.435 183.673C24.0758 180.628 19.488 175.726 24.7051 172.508L193.53 75.18C196.068 73.6067 199.914 72.5816 202.482 74.0736L379.092 176.589C384.452 179.695 385.406 188.393 380.046 191.499L219.829 282.92C216.469 284.881 212.655 285.931 208.765 285.964C204.875 285.998 201.044 285.015 197.651 283.113Z" fill="#293445"/>
<path opacity="0.32" d="M118.674 216.529C121.871 217.544 127.494 224.06 130.773 224.72C132.803 225.126 186.466 260.763 188.496 260.915L237.419 230.059L174.052 198.675L156.31 182.699L113.294 207.526C118.593 211.393 112.492 214.641 118.674 216.529Z" fill="url(#paint0_linear)"/>
<path d="M140.283 196.645L214.987 239.782C215.842 240.277 216.811 240.537 217.799 240.537C218.786 240.537 219.756 240.277 220.61 239.782L334.564 173.98C335.04 173.717 335.437 173.331 335.713 172.862C335.989 172.394 336.135 171.86 336.135 171.316C336.135 170.772 335.989 170.238 335.713 169.769C335.437 169.301 335.04 168.915 334.564 168.651L258.521 124.803C258.058 124.536 257.533 124.395 256.998 124.395C256.463 124.395 255.938 124.536 255.476 124.803L140.283 191.296C139.802 191.558 139.401 191.944 139.121 192.415C138.841 192.886 138.694 193.423 138.694 193.97C138.694 194.518 138.841 195.055 139.121 195.526C139.401 195.997 139.802 196.383 140.283 196.645Z" fill="#18A1B5"/>
<path d="M142.892 177.228V191.631L218.956 235.55L331.367 168.408V156.228" fill="#B3B3B3"/>
<path d="M142.892 177.228L218.956 221.137L331.367 156.228L255.242 112.329L142.892 177.228Z" fill="#F2F2F2"/>
<path d="M325.744 149.661C323.085 149.488 321.471 151.995 321.928 154.431C322.049 155.071 323.024 154.797 322.943 154.157C322.842 153.76 322.83 153.346 322.906 152.944C322.983 152.542 323.146 152.161 323.385 151.829C323.623 151.496 323.932 151.22 324.289 151.019C324.645 150.818 325.042 150.697 325.45 150.665C325.846 150.648 326.24 150.735 326.592 150.918C326.944 151.101 327.242 151.373 327.456 151.707C327.669 152.041 327.792 152.425 327.81 152.821C327.829 153.218 327.743 153.612 327.561 153.964C327.266 154.543 328.139 155.06 328.434 154.472C328.691 153.988 328.823 153.446 328.817 152.898C328.811 152.35 328.668 151.812 328.401 151.333C328.133 150.854 327.75 150.45 327.285 150.158C326.821 149.866 326.291 149.695 325.744 149.661Z" fill="#431700"/>
<path d="M313.056 142.454C310.397 142.282 308.783 144.789 309.24 147.225C309.362 147.864 310.336 147.59 310.255 146.951C310.155 146.554 310.142 146.14 310.219 145.737C310.295 145.335 310.458 144.955 310.697 144.622C310.936 144.29 311.244 144.013 311.601 143.812C311.958 143.611 312.354 143.491 312.762 143.459C313.158 143.442 313.552 143.529 313.904 143.711C314.256 143.894 314.554 144.166 314.768 144.5C314.982 144.834 315.104 145.219 315.123 145.615C315.141 146.011 315.055 146.405 314.873 146.758C314.579 147.336 315.452 147.854 315.746 147.265C316.004 146.781 316.136 146.24 316.13 145.692C316.124 145.143 315.981 144.605 315.713 144.126C315.445 143.648 315.062 143.244 314.598 142.952C314.134 142.659 313.604 142.488 313.056 142.454Z" fill="#431700"/>
<path d="M299.801 134.263C297.141 134.091 295.527 136.598 295.984 139.034C296.106 139.673 297.08 139.399 296.999 138.76C296.899 138.363 296.886 137.949 296.963 137.546C297.039 137.144 297.202 136.764 297.441 136.431C297.68 136.099 297.988 135.822 298.345 135.621C298.702 135.42 299.098 135.3 299.506 135.268C299.902 135.25 300.296 135.337 300.648 135.52C301 135.703 301.298 135.975 301.512 136.309C301.726 136.643 301.848 137.028 301.867 137.424C301.885 137.82 301.799 138.214 301.617 138.567C301.323 139.145 302.196 139.663 302.49 139.074C302.748 138.59 302.88 138.049 302.874 137.501C302.868 136.952 302.725 136.414 302.457 135.935C302.189 135.457 301.806 135.053 301.342 134.761C300.878 134.468 300.348 134.297 299.801 134.263Z" fill="#431700"/>
<path d="M288.098 127.057C285.438 126.884 283.824 129.391 284.281 131.827C284.403 132.467 285.377 132.192 285.296 131.553C285.196 131.156 285.184 130.742 285.26 130.34C285.336 129.938 285.5 129.557 285.738 129.225C285.977 128.892 286.286 128.616 286.642 128.415C286.999 128.214 287.395 128.093 287.803 128.061C288.2 128.044 288.593 128.131 288.946 128.314C289.298 128.496 289.595 128.768 289.809 129.103C290.023 129.437 290.145 129.821 290.164 130.217C290.182 130.614 290.096 131.008 289.914 131.36C289.62 131.939 290.493 132.456 290.787 131.868C291.045 131.383 291.177 130.842 291.171 130.294C291.165 129.746 291.022 129.207 290.754 128.729C290.487 128.25 290.103 127.846 289.639 127.554C289.175 127.262 288.645 127.091 288.098 127.057Z" fill="#431700"/>
<path d="M277.339 121.809C274.679 121.636 273.065 124.144 273.522 126.58C273.644 127.219 274.618 126.945 274.537 126.305C274.437 125.909 274.425 125.495 274.501 125.092C274.577 124.69 274.741 124.31 274.979 123.977C275.218 123.645 275.527 123.368 275.883 123.167C276.24 122.966 276.636 122.846 277.044 122.814C277.441 122.796 277.834 122.883 278.186 123.066C278.539 123.249 278.836 123.521 279.05 123.855C279.264 124.189 279.386 124.574 279.405 124.97C279.423 125.366 279.337 125.76 279.155 126.113C278.861 126.691 279.734 127.209 280.028 126.62C280.286 126.136 280.418 125.595 280.412 125.046C280.406 124.498 280.263 123.96 279.995 123.481C279.728 123.003 279.344 122.599 278.88 122.307C278.416 122.014 277.886 121.843 277.339 121.809Z" fill="#431700"/>
<path d="M264.59 113.659C261.931 113.486 260.317 115.993 260.774 118.429C260.896 119.069 261.87 118.794 261.789 118.155C261.689 117.758 261.676 117.344 261.753 116.942C261.829 116.54 261.992 116.159 262.231 115.827C262.47 115.494 262.778 115.218 263.135 115.017C263.491 114.816 263.888 114.695 264.296 114.663C264.692 114.646 265.086 114.733 265.438 114.916C265.79 115.098 266.088 115.37 266.302 115.705C266.516 116.039 266.638 116.423 266.656 116.819C266.675 117.216 266.589 117.61 266.407 117.962C266.113 118.541 266.986 119.058 267.28 118.47C267.537 117.985 267.669 117.444 267.663 116.896C267.658 116.348 267.514 115.809 267.247 115.331C266.979 114.852 266.596 114.448 266.132 114.156C265.668 113.864 265.138 113.693 264.59 113.659Z" fill="#431700"/>
<path d="M321.938 156.025C323.434 156.025 324.648 155.311 324.648 154.431C324.648 153.551 323.434 152.838 321.938 152.838C320.441 152.838 319.228 153.551 319.228 154.431C319.228 155.311 320.441 156.025 321.938 156.025Z" fill="#2D0F02"/>
<path d="M309.169 149.184C310.666 149.184 311.879 148.47 311.879 147.59C311.879 146.71 310.666 145.996 309.169 145.996C307.672 145.996 306.459 146.71 306.459 147.59C306.459 148.47 307.672 149.184 309.169 149.184Z" fill="#2D0F02"/>
<path d="M295.903 140.993C297.4 140.993 298.613 140.279 298.613 139.399C298.613 138.519 297.4 137.805 295.903 137.805C294.406 137.805 293.193 138.519 293.193 139.399C293.193 140.279 294.406 140.993 295.903 140.993Z" fill="#2D0F02"/>
<path d="M284.2 133.786C285.697 133.786 286.91 133.073 286.91 132.192C286.91 131.312 285.697 130.599 284.2 130.599C282.703 130.599 281.49 131.312 281.49 132.192C281.49 133.073 282.703 133.786 284.2 133.786Z" fill="#2D0F02"/>
<path d="M273.441 128.173C274.938 128.173 276.151 127.46 276.151 126.58C276.151 125.699 274.938 124.986 273.441 124.986C271.944 124.986 270.731 125.699 270.731 126.58C270.731 127.46 271.944 128.173 273.441 128.173Z" fill="#2D0F02"/>
<path d="M260.703 120.388C262.199 120.388 263.413 119.675 263.413 118.794C263.413 117.914 262.199 117.201 260.703 117.201C259.206 117.201 257.993 117.914 257.993 118.794C257.993 119.675 259.206 120.388 260.703 120.388Z" fill="#2D0F02"/>
<path d="M239.296 129.736L301.151 165.616C301.325 165.719 301.534 165.747 301.73 165.696C301.926 165.645 302.094 165.517 302.196 165.342C302.298 165.167 302.327 164.959 302.275 164.763C302.224 164.567 302.097 164.399 301.922 164.297L240.068 128.417C239.981 128.366 239.885 128.333 239.786 128.319C239.687 128.306 239.585 128.312 239.488 128.337C239.391 128.363 239.3 128.407 239.22 128.468C239.14 128.528 239.073 128.604 239.022 128.691C238.972 128.777 238.939 128.873 238.925 128.973C238.911 129.072 238.917 129.173 238.943 129.27C238.968 129.367 239.013 129.458 239.073 129.538C239.134 129.618 239.21 129.686 239.296 129.736Z" fill="#999999"/>
<path d="M230.314 135.136L292.168 171.016C292.343 171.119 292.551 171.147 292.747 171.096C292.943 171.044 293.111 170.917 293.213 170.742C293.315 170.567 293.344 170.359 293.293 170.163C293.241 169.967 293.114 169.799 292.939 169.697L231.085 133.817C230.91 133.714 230.702 133.686 230.506 133.737C230.309 133.788 230.142 133.916 230.04 134.091C229.937 134.266 229.909 134.474 229.96 134.67C230.011 134.866 230.139 135.034 230.314 135.136Z" fill="#999999"/>
<path d="M222.062 138.851L283.916 174.731C284.091 174.833 284.299 174.862 284.495 174.811C284.691 174.759 284.859 174.632 284.961 174.457C285.064 174.282 285.092 174.074 285.041 173.878C284.989 173.682 284.862 173.514 284.687 173.412L222.833 137.531C222.658 137.429 222.45 137.4 222.254 137.452C222.058 137.503 221.89 137.63 221.788 137.805C221.685 137.98 221.657 138.189 221.708 138.385C221.76 138.581 221.887 138.749 222.062 138.851Z" fill="#999999"/>
<path d="M213.079 144.261L274.933 180.141C275.108 180.243 275.316 180.272 275.513 180.221C275.709 180.169 275.876 180.042 275.979 179.867C276.081 179.692 276.109 179.484 276.058 179.288C276.007 179.092 275.879 178.924 275.704 178.822L213.85 142.941C213.764 142.891 213.668 142.858 213.569 142.844C213.469 142.83 213.368 142.836 213.271 142.862C213.174 142.887 213.083 142.932 213.003 142.992C212.923 143.053 212.856 143.129 212.805 143.215C212.754 143.302 212.721 143.398 212.708 143.497C212.694 143.597 212.7 143.698 212.725 143.795C212.751 143.892 212.795 143.983 212.856 144.063C212.917 144.143 212.992 144.21 213.079 144.261Z" fill="#999999"/>
<path d="M197.083 154.939L258.937 190.819C259.023 190.87 259.119 190.903 259.218 190.916C259.318 190.93 259.419 190.924 259.516 190.898C259.613 190.873 259.704 190.829 259.784 190.768C259.864 190.707 259.931 190.631 259.982 190.545C260.033 190.458 260.066 190.362 260.079 190.263C260.093 190.164 260.087 190.062 260.062 189.965C260.036 189.868 259.992 189.777 259.931 189.697C259.871 189.617 259.795 189.55 259.708 189.499L197.854 153.619C197.679 153.517 197.471 153.488 197.274 153.54C197.078 153.591 196.911 153.718 196.809 153.893C196.706 154.068 196.678 154.277 196.729 154.473C196.78 154.669 196.908 154.836 197.083 154.939Z" fill="#999999"/>
<path d="M188.11 160.338L249.964 196.219C250.139 196.321 250.347 196.35 250.544 196.298C250.74 196.247 250.907 196.12 251.009 195.945C251.112 195.77 251.14 195.561 251.089 195.365C251.038 195.169 250.91 195.001 250.735 194.899L188.881 159.019C188.706 158.917 188.498 158.888 188.302 158.939C188.106 158.991 187.938 159.118 187.836 159.293C187.734 159.468 187.705 159.676 187.756 159.872C187.808 160.068 187.935 160.236 188.11 160.338Z" fill="#999999"/>
<path d="M179.848 164.053L241.702 199.934C241.877 200.036 242.085 200.065 242.281 200.013C242.477 199.962 242.645 199.835 242.747 199.66C242.85 199.485 242.878 199.276 242.827 199.08C242.776 198.884 242.648 198.716 242.473 198.614L180.67 162.734C180.495 162.632 180.287 162.603 180.091 162.654C179.894 162.706 179.727 162.833 179.625 163.008C179.522 163.183 179.494 163.391 179.545 163.587C179.596 163.783 179.724 163.951 179.899 164.053H179.848Z" fill="#999999"/>
<path d="M173.149 168.398L235.003 204.278C235.178 204.38 235.386 204.409 235.582 204.357C235.778 204.306 235.946 204.179 236.048 204.004C236.151 203.829 236.179 203.62 236.128 203.424C236.076 203.228 235.949 203.061 235.774 202.958L173.92 167.078C173.745 166.976 173.537 166.947 173.341 166.999C173.145 167.05 172.977 167.177 172.875 167.352C172.773 167.527 172.744 167.736 172.795 167.932C172.847 168.128 172.974 168.295 173.149 168.398Z" fill="#999999"/>
<path opacity="0.32" d="M161.324 130.203C164.521 131.218 167.729 132.142 171.017 132.802C173.031 133.16 175.065 133.394 177.107 133.502L180.518 131.188L204.117 113.638L186.07 107.64L143.348 122.55C148.626 126.397 155.143 128.315 161.324 130.203Z" fill="url(#paint1_linear)"/>
<path d="M194.657 94.5665C190.404 94.2011 185.918 92.912 182.771 89.999V102.626C182.772 104.347 183.113 106.052 183.773 107.642C184.434 109.232 185.401 110.676 186.62 111.892C187.839 113.108 189.285 114.072 190.877 114.728C192.468 115.385 194.173 115.722 195.895 115.719C197.616 115.719 199.32 115.38 200.91 114.722C202.499 114.063 203.944 113.098 205.161 111.881C206.377 110.664 207.343 109.22 208.001 107.63C208.66 106.04 208.999 104.336 208.999 102.615V89.7858C204.502 91.6027 199.427 94.9826 194.657 94.5665Z" fill="#68E1FD"/>
<path d="M195.865 96.8604C203.101 96.8604 208.968 93.752 208.968 89.9178C208.968 86.0835 203.101 82.9752 195.865 82.9752C188.628 82.9752 182.761 86.0835 182.761 89.9178C182.761 93.752 188.628 96.8604 195.865 96.8604Z" fill="#5ED18D"/>
<path d="M195.895 91.085C195.895 91.085 186.983 89.7757 184.629 75.3627C184.598 75.3728 192.2 79.5648 195.895 91.085Z" fill="#5ED18D"/>
<path d="M197.174 89.258C197.174 89.258 186.953 70.9169 197.174 58.605C200.293 68.5846 200.293 79.2783 197.174 89.258Z" fill="#5ED18D"/>
<path d="M195.895 77.7276C195.895 77.7276 186.983 76.4182 184.629 62.0052C184.598 62.0154 192.2 66.2073 195.895 77.7276Z" fill="#5ED18D"/>
<path d="M196.91 83.6045C196.91 83.6045 194.677 74.8856 207.06 67.1412C207.06 67.1412 206.167 75.7687 196.91 83.6045Z" fill="#5ED18D"/>
<path d="M195.865 96.8604C203.101 96.8604 208.968 93.752 208.968 89.9178C208.968 86.0835 203.101 82.9752 195.865 82.9752C188.628 82.9752 182.761 86.0835 182.761 89.9178C182.761 93.752 188.628 96.8604 195.865 96.8604Z" fill="#146666"/>
<path d="M195.895 91.085C195.895 91.085 186.983 89.7757 184.629 75.3627C184.598 75.3728 192.2 79.5648 195.895 91.085Z" fill="#5ED18D"/>
<path d="M197.174 89.258C197.174 89.258 186.953 70.9169 197.174 58.605C200.293 68.5846 200.293 79.2783 197.174 89.258Z" fill="#5ED18D"/>
<path d="M195.895 77.7276C195.895 77.7276 186.983 76.4182 184.629 62.0052C184.598 62.0154 192.2 66.2073 195.895 77.7276Z" fill="#5ED18D"/>
<path d="M196.91 83.6045C196.91 83.6045 194.677 74.8856 207.06 67.1412C207.06 67.1412 206.167 75.7687 196.91 83.6045Z" fill="#5ED18D"/>
<path d="M261.87 158.968L258.967 157.405C259.292 156.603 258.378 156.055 257.719 156.157L253.557 153.01C253.778 152.87 253.936 152.649 253.998 152.395C254.061 152.141 254.022 151.872 253.891 151.646C253.76 151.419 253.547 151.252 253.295 151.179C253.044 151.106 252.774 151.133 252.542 151.254L248.614 150.483L248.827 150.371C249.842 149.813 249.152 148.138 248.046 148.514L247.802 148.625H247.741C247.597 148.69 247.458 148.764 247.325 148.849C245.572 149.83 243.589 150.328 241.58 150.29C243.925 148.676 245.194 146.93 241.763 144.403L241.458 144.2C243.636 142.024 245.177 139.293 245.914 136.303C248.827 123.697 229.309 131.644 224.853 134.781C223.838 135.522 224.853 137.288 225.868 136.537C228.531 134.586 231.521 133.128 234.698 132.233C236.333 131.797 238.758 130.863 240.271 131.401C240.919 131.63 241.511 131.994 242.009 132.468C242.507 132.942 242.899 133.516 243.16 134.153C243.42 134.789 243.544 135.473 243.522 136.16C243.5 136.847 243.333 137.522 243.032 138.14C242.089 139.989 240.844 141.667 239.347 143.104C235.571 141.662 230.994 142.282 227.167 143.104C223.726 143.824 214.195 145.337 212.835 149.519C211.82 152.726 215.342 153.436 217.687 153.467C225.29 153.425 232.686 150.993 238.83 146.514C238.83 146.656 238.89 146.798 238.901 146.961C240.389 148.578 240.105 149.613 238.048 150.067C237.875 150.167 237.735 150.317 237.647 150.496C237.558 150.676 237.525 150.878 237.551 151.077C237.577 151.275 237.661 151.462 237.793 151.612C237.925 151.763 238.098 151.872 238.292 151.924C240.851 152.555 243.538 152.442 246.036 151.599C246.08 151.878 246.159 152.151 246.269 152.411C247.112 154.38 248.929 154.522 250.705 154.076C250.658 154.81 250.838 155.54 251.223 156.167C252.38 158.146 254.562 158.42 256.633 158.268C256.572 160.815 259.952 161.313 262.357 160.897C263.707 160.724 263.159 158.765 261.87 158.968ZM218.611 151.457C216.973 152.066 216.364 151.603 216.784 150.067C216.303 148.794 216.767 148.118 218.174 148.037C219.352 147.133 221.382 146.778 222.813 146.331C225.859 145.316 229.013 144.659 232.212 144.372C233.252 144.292 234.297 144.292 235.338 144.372C236.118 144.186 236.938 144.272 237.662 144.616C234.749 146.888 231.457 148.627 227.939 149.752C225.33 150.625 221.341 152.076 218.621 151.447L218.611 151.457Z" fill="#431700"/>
<path d="M125.708 32.9357C125.708 32.9357 114.167 38.8531 108.808 41.6241C103.449 44.395 87.6351 49.4294 87.493 55.6311C87.3509 61.8327 92.8421 63.8526 89.8681 68.5419C86.8942 73.2312 87.8381 81.8891 94.9431 83.6045C102.048 85.3198 128.245 55.3672 128.245 55.3672" fill="#663A12"/>
<path d="M107.59 172.904C107.59 172.904 107.428 181.116 108.412 181.613C109.397 182.11 115.578 190.19 116.014 191.458C117.446 195.671 112.452 195.346 109.661 193.925C106.869 192.504 99.4091 186.82 99.0843 184.79C98.7595 182.76 96.425 170.499 96.425 170.499" fill="#994900"/>
<path d="M119.232 165.759C119.232 165.759 119.07 173.97 120.054 174.467C121.039 174.965 128.408 182.293 128.925 183.531C130.539 187.439 125.403 187.591 122.612 186.17C119.821 184.749 111.051 179.623 110.726 177.624C110.402 175.624 108.108 163.353 108.108 163.353" fill="#994900"/>
<path d="M87.7264 86.7205C87.7264 86.7205 81.8394 95.9367 82.6514 104.209C83.4634 112.481 91.7154 178.304 97.034 177.593C102.353 176.883 105.53 177.685 108.311 170.722C108.311 170.722 117.243 172.752 120.074 165.647C120.074 165.647 117.923 103.935 112.848 94.262C107.773 84.589 87.7264 86.7205 87.7264 86.7205Z" fill="#1FC8E1"/>
<path d="M163.831 62.5432C162.352 62.1711 160.845 61.9199 159.325 61.7921C160.872 61.8091 162.415 61.9687 163.933 62.2691C165.516 62.5229 165.699 60.0361 164.125 59.7722L163.344 59.6504C163.488 59.4728 163.582 59.2605 163.617 59.0348C163.653 58.8091 163.628 58.5781 163.546 58.365C163.463 58.152 163.326 57.9644 163.148 57.8212C162.97 57.678 162.758 57.5842 162.532 57.5494C159.056 57.1217 155.53 57.4435 152.189 58.4933C152.28 57.2318 152.257 55.9646 152.118 54.7074C152.096 54.4915 152.012 54.2868 151.874 54.1187C151.756 53.8661 151.56 53.6578 151.315 53.5242C151.071 53.3907 150.789 53.3388 150.513 53.3762C150.237 53.4136 149.979 53.5383 149.779 53.7321C149.578 53.9259 149.445 54.1787 149.398 54.4536C149.053 56.4836 149.154 58.5136 148.819 60.4827C148.751 60.8268 148.659 61.1659 148.545 61.4977C147.002 63.0947 145.487 64.7153 143.998 66.3596C142.983 67.5268 144.881 68.9072 145.967 67.8719C146.13 68.1176 146.364 68.3086 146.637 68.42L146.454 68.6636C146.336 68.8214 146.261 69.0079 146.238 69.2041C146.214 69.4002 146.244 69.599 146.322 69.7801L146.15 69.9527C145.003 71.0692 146.607 72.9977 147.754 71.871L148.149 71.465C148.27 71.5427 148.405 71.594 148.547 71.6156C148.689 71.6371 148.833 71.6285 148.971 71.5901C149.109 71.5518 149.238 71.4846 149.348 71.3931C149.458 71.3015 149.548 71.1877 149.611 71.059C150.583 69.4869 151.911 68.1656 153.488 67.202L153.975 66.8671C155.332 66.4039 156.746 66.1273 158.178 66.0449C159.193 66.319 160.299 66.6336 161.344 66.9686C161.647 67.1032 161.991 67.112 162.3 66.993C162.61 66.874 162.859 66.637 162.994 66.3342C163.128 66.0314 163.137 65.6875 163.018 65.3781C162.899 65.0688 162.662 64.8194 162.359 64.6848L163.039 64.8371C164.531 65.2938 165.394 62.939 163.831 62.5432Z" fill="#FFC388"/>
<path d="M163.527 59.3256C161.879 59.1019 160.214 59.0271 158.553 59.1024C158.147 59.1024 158.096 59.7621 158.553 59.7418C160.214 59.6666 161.879 59.7413 163.527 59.9651C163.892 60.0158 163.933 59.3764 163.527 59.3256Z" fill="#663A12"/>
<path d="M163.76 61.853C162.006 61.5909 160.235 61.4654 158.462 61.4775C158.056 61.4775 158.005 62.1169 158.462 62.1169C160.235 62.1048 162.006 62.2304 163.76 62.4925C164.126 62.5534 164.166 61.9139 163.76 61.853Z" fill="#663A12"/>
<path d="M156.716 62.665C155.74 62.3853 154.712 62.3378 153.715 62.5264C152.717 62.715 151.778 63.1344 150.971 63.7511C150.626 63.9744 151.042 64.4616 151.377 64.2383C152.087 63.6888 152.915 63.3112 153.795 63.1351C154.676 62.9591 155.585 62.9892 156.452 63.2233C156.523 63.2411 156.597 63.2339 156.663 63.2028C156.729 63.1717 156.782 63.1186 156.814 63.0527C156.845 62.9868 156.852 62.9121 156.834 62.8413C156.816 62.7706 156.775 62.7083 156.716 62.665Z" fill="#663A12"/>
<path d="M157.731 62.5432C157.646 61.8153 157.383 61.1196 156.966 60.5177C156.548 59.9157 155.988 59.4261 155.336 59.0922C154.96 58.9298 154.737 59.5388 155.122 59.691C155.679 59.9797 156.155 60.4013 156.509 60.9184C156.863 61.4354 157.084 62.0319 157.152 62.6548C157.193 63.0608 157.822 62.9492 157.731 62.5432Z" fill="#663A12"/>
<path d="M162.857 64.1773C161.569 63.5989 160.2 63.2256 158.797 63.071C158.391 63.071 158.34 63.6597 158.797 63.7104C160.151 63.8577 161.473 64.2173 162.715 64.7762C163.019 64.9487 163.232 64.3397 162.857 64.1773Z" fill="#663A12"/>
<path d="M135.563 59.2546L138.497 77.1998C138.497 77.1998 136.264 83.8886 131.463 84.7514C126.662 85.6141 123.059 63.3044 123.059 63.3044" fill="#293445"/>
<path d="M121.353 49.6426C120.694 49.4802 115.203 50.4038 110.442 51.9466C105.682 53.4894 85.0063 83.706 87.7265 86.7205C90.4467 89.7351 103.205 95.7642 110.868 94.0996C118.532 92.435 136.396 62.6346 135.563 59.2445C133.645 51.4797 127.646 51.4594 127.646 51.4594" fill="#293445"/>
<path d="M134.995 41.6647C134.995 41.6647 136.386 53.0428 132.265 55.0931C128.144 57.1434 123.678 52.8804 122.348 50.4038C121.018 47.9272 119.608 35.4123 127.342 36.2547C135.076 37.0972 134.995 41.6647 134.995 41.6647Z" fill="#FFC388"/>
<path d="M135.208 34.1638C132.062 33.0676 128.418 30.7026 122.825 34.3972C117.232 38.0918 115.487 48.3636 122.176 50.8504L123.119 48.0794C122.94 47.8751 122.78 47.6542 122.642 47.4197C122.322 46.9217 122.139 46.347 122.115 45.7551C121.981 45.1631 122.009 44.5462 122.196 43.9687C122.196 43.8976 122.196 43.8367 122.196 43.7657C126.662 43.7657 131.124 43.7657 135.584 43.7657C136.034 43.7883 136.483 43.6991 136.89 43.5061C137.297 43.313 137.651 43.0221 137.918 42.6593C139.674 41.35 139.177 35.5442 135.208 34.1638Z" fill="#663A12"/>
<path d="M147.073 61.8632C143.176 64.289 135.239 71.3331 135.239 71.3331L129.453 83.777C129.453 83.777 132.843 88.5678 139.167 85.198C143.653 82.8026 150.738 74.0939 154.128 68.9073C153.48 67.3224 152.523 65.8829 151.312 64.6732C150.1 63.4636 148.659 62.5082 147.073 61.8632Z" fill="#293445"/>
<path d="M104.474 105.833C104.393 104.98 103.053 104.98 103.134 105.833L109.224 170.651C109.305 171.503 110.645 171.503 110.564 170.651L104.474 105.833Z" fill="#1396A9"/>
<path d="M125.058 82.8838C125.058 82.8838 118.41 77.352 118.41 74.9363C118.41 72.5206 121.861 54.7683 116.146 53.3574C110.432 51.9466 105.804 65.3649 104.169 73.2514C102.535 81.138 121.272 95.7134 121.272 95.7134" fill="#293445"/>
<path d="M124.52 41.35C124.175 37.4727 118.085 37.4423 118.43 41.35C118.633 43.6642 118.988 46.2423 118.268 48.455C117.95 49.5959 117.358 50.6415 116.542 51.5H115.984C115.313 51.3938 114.632 51.3597 113.954 51.3985C110.036 51.3985 110.026 57.4885 113.954 57.4885C115.811 57.4885 117.527 58.3107 119.202 57.2145C120.744 56.0735 122.013 54.6034 122.916 52.9109C124.967 49.3076 124.845 45.2679 124.52 41.35Z" fill="#663A12"/>
<path d="M89.8579 39.1272C90.4771 34.3973 94.8213 30.4286 99.4903 29.5253L189.105 130.487L178.955 139.501L89.8579 39.1272Z" fill="#2DD4BF"/>
<path d="M185.934 137.149C188.739 134.659 190.159 131.679 189.106 130.493C188.053 129.306 184.926 130.363 182.121 132.852C179.316 135.341 177.896 138.321 178.949 139.508C180.002 140.694 183.129 139.638 185.934 137.149Z" fill="#68E1FD"/>
<path d="M179.493 140.109C179.493 140.109 178.153 136.74 182.375 133.319C186.598 129.899 189.257 130.67 189.257 130.67L202.147 154.157L179.493 140.109Z" fill="#FFF8E3"/>
<path d="M202.147 154.147L191.622 147.621C191.622 147.621 192.018 144.027 196.352 143.561L202.147 154.147Z" fill="#653200"/>
<path d="M136.751 96.6472L142.841 97.3577C142.841 97.3577 147.713 96.3427 148.799 98.2509C149.093 98.7686 143.957 99.4994 143.957 99.4994C143.957 99.4994 151.357 101.448 150.91 102.91C150.464 104.371 145.541 107.183 144.597 107.447C143.653 107.711 134.264 100.342 134.264 100.342" fill="#FFC388"/>
<path d="M139.674 96.0991C137.279 92.709 132.295 89.39 128.235 85.5533C122.724 80.9858 116.969 75.2003 112.523 81.4425C107.58 88.3851 127.007 101.408 132.66 104.991C135.893 102.857 138.352 99.7394 139.674 96.0991Z" fill="#293445"/>
<path d="M103.672 72.541C102.71 75.8881 102.509 79.4082 103.083 82.8432C103.581 85.4416 104.322 87.9791 105.022 90.5369C108.191 91.3109 111.434 91.7465 114.695 91.8361C114.695 91.8361 105.672 82.2038 104.931 77.7276C104.474 75.2107 104.474 72.6321 104.931 70.1151L103.672 72.541Z" fill="#191F29"/>
<path opacity="0.32" d="M86.6912 199.781C89.8884 200.796 93.0958 201.72 96.3844 202.38C98.398 202.739 100.432 202.972 102.474 203.08L105.885 200.766L129.484 183.217L111.437 177.218L68.7155 192.108C73.9935 195.975 80.5098 197.893 86.6912 199.781Z" fill="url(#paint2_linear)"/>
<defs>
<linearGradient id="paint0_linear" x1="161.974" y1="231.388" x2="196.88" y2="198.553" gradientUnits="userSpaceOnUse">
<stop stop-opacity="0"/>
<stop offset="0.99" stop-color="#552800"/>
</linearGradient>
<linearGradient id="paint1_linear" x1="10071" y1="3286.62" x2="10502.4" y2="2333.45" gradientUnits="userSpaceOnUse">
<stop stop-opacity="0"/>
<stop offset="0.99" stop-color="#552800"/>
</linearGradient>
<linearGradient id="paint2_linear" x1="5528.12" y1="5129.05" x2="5959.47" y2="4175.88" gradientUnits="userSpaceOnUse">
<stop stop-opacity="0"/>
<stop offset="0.99" stop-color="#060B12"/>
</linearGradient>
</defs>
</svg>
