<svg width="204" height="55" viewBox="0 0 204 55" fill="none" xmlns="http://www.w3.org/2000/svg">
<path d="M63.2754 42V21.168H68.0214L68.4834 23.982C69.1554 22.974 70.0374 22.176 71.1294 21.588C72.2494 20.972 73.5374 20.664 74.9934 20.664C78.2134 20.664 80.4954 21.91 81.8394 24.402C82.5954 23.254 83.6034 22.344 84.8634 21.672C86.1514 21 87.5514 20.664 89.0634 20.664C91.7794 20.664 93.8654 21.476 95.3214 23.1C96.7774 24.724 97.5054 27.104 97.5054 30.24V42H92.1294V30.744C92.1294 28.952 91.7794 27.58 91.0794 26.628C90.4074 25.676 89.3574 25.2 87.9294 25.2C86.4734 25.2 85.2974 25.732 84.4014 26.796C83.5334 27.86 83.0994 29.344 83.0994 31.248V42H77.7234V30.744C77.7234 28.952 77.3734 27.58 76.6734 26.628C75.9734 25.676 74.8954 25.2 73.4394 25.2C72.0114 25.2 70.8494 25.732 69.9534 26.796C69.0854 27.86 68.6514 29.344 68.6514 31.248V42H63.2754ZM106.431 42.504C104.639 42.504 103.169 42.224 102.021 41.664C100.873 41.076 100.019 40.306 99.4594 39.354C98.8994 38.402 98.6194 37.352 98.6194 36.204C98.6194 34.272 99.3754 32.704 100.887 31.5C102.399 30.296 104.667 29.694 107.691 29.694H112.983V29.19C112.983 27.762 112.577 26.712 111.765 26.04C110.953 25.368 109.945 25.032 108.741 25.032C107.649 25.032 106.697 25.298 105.885 25.83C105.073 26.334 104.569 27.09 104.373 28.098H99.1234C99.2634 26.586 99.7674 25.27 100.635 24.15C101.531 23.03 102.679 22.176 104.079 21.588C105.479 20.972 107.047 20.664 108.783 20.664C111.751 20.664 114.089 21.406 115.797 22.89C117.505 24.374 118.359 26.474 118.359 29.19V42H113.781L113.277 38.64C112.661 39.76 111.793 40.684 110.673 41.412C109.581 42.14 108.167 42.504 106.431 42.504ZM107.649 38.304C109.189 38.304 110.379 37.8 111.219 36.792C112.087 35.784 112.633 34.538 112.857 33.054H108.279C106.851 33.054 105.829 33.32 105.213 33.852C104.597 34.356 104.289 34.986 104.289 35.742C104.289 36.554 104.597 37.184 105.213 37.632C105.829 38.08 106.641 38.304 107.649 38.304ZM120.13 42V21.168H124.918L125.422 25.074C126.178 23.73 127.2 22.666 128.488 21.882C129.804 21.07 131.344 20.664 133.108 20.664V26.334H131.596C130.42 26.334 129.37 26.516 128.446 26.88C127.522 27.244 126.794 27.874 126.262 28.77C125.758 29.666 125.506 30.912 125.506 32.508V42H120.13ZM133.422 42V11.76H138.798V29.61L146.19 21.168H152.574L144.048 30.66L153.96 42H147.24L138.798 31.542V42H133.422ZM162.332 42.504C160.232 42.504 158.37 42.056 156.746 41.16C155.122 40.264 153.848 39.004 152.924 37.38C152 35.756 151.538 33.88 151.538 31.752C151.538 29.596 151.986 27.678 152.882 25.998C153.806 24.318 155.066 23.016 156.662 22.092C158.286 21.14 160.19 20.664 162.374 20.664C164.418 20.664 166.224 21.112 167.792 22.008C169.36 22.904 170.578 24.136 171.446 25.704C172.342 27.244 172.79 28.966 172.79 30.87C172.79 31.178 172.776 31.5 172.748 31.836C172.748 32.172 172.734 32.522 172.706 32.886H156.872C156.984 34.51 157.544 35.784 158.552 36.708C159.588 37.632 160.834 38.094 162.29 38.094C163.382 38.094 164.292 37.856 165.02 37.38C165.776 36.876 166.336 36.232 166.7 35.448H172.16C171.768 36.764 171.11 37.968 170.186 39.06C169.29 40.124 168.17 40.964 166.826 41.58C165.51 42.196 164.012 42.504 162.332 42.504ZM162.374 25.032C161.058 25.032 159.896 25.41 158.888 26.166C157.88 26.894 157.236 28.014 156.956 29.526H167.33C167.246 28.154 166.742 27.062 165.818 26.25C164.894 25.438 163.746 25.032 162.374 25.032ZM184.074 42.504C181.974 42.504 180.112 42.056 178.488 41.16C176.864 40.264 175.59 39.004 174.666 37.38C173.742 35.756 173.28 33.88 173.28 31.752C173.28 29.596 173.728 27.678 174.624 25.998C175.548 24.318 176.808 23.016 178.404 22.092C180.028 21.14 181.932 20.664 184.116 20.664C186.16 20.664 187.966 21.112 189.534 22.008C191.102 22.904 192.32 24.136 193.188 25.704C194.084 27.244 194.532 28.966 194.532 30.87C194.532 31.178 194.518 31.5 194.49 31.836C194.49 32.172 194.476 32.522 194.448 32.886H178.614C178.726 34.51 179.286 35.784 180.294 36.708C181.33 37.632 182.576 38.094 184.032 38.094C185.124 38.094 186.034 37.856 186.762 37.38C187.518 36.876 188.078 36.232 188.442 35.448H193.902C193.51 36.764 192.852 37.968 191.928 39.06C191.032 40.124 189.912 40.964 188.568 41.58C187.252 42.196 185.754 42.504 184.074 42.504ZM184.116 25.032C182.8 25.032 181.638 25.41 180.63 26.166C179.622 26.894 178.978 28.014 178.698 29.526H189.072C188.988 28.154 188.484 27.062 187.56 26.25C186.636 25.438 185.488 25.032 184.116 25.032Z" fill="#FAFAFA"/>
<path d="M198.004 42.294C197.024 42.294 196.212 41.986 195.568 41.37C194.952 40.754 194.644 40.012 194.644 39.144C194.644 38.248 194.952 37.492 195.568 36.876C196.212 36.26 197.024 35.952 198.004 35.952C198.984 35.952 199.782 36.26 200.398 36.876C201.042 37.492 201.364 38.248 201.364 39.144C201.364 40.012 201.042 40.754 200.398 41.37C199.782 41.986 198.984 42.294 198.004 42.294Z" fill="url(#paint0_linear)"/>
<path d="M0 49.623V18V5.43151C0 4.41431 1.15018 3.82302 1.97741 4.41495L21.5453 18.417C21.9803 18.7283 22.5651 18.7283 23.0001 18.417L42.5681 4.41495C43.3953 3.82302 44.5455 4.41431 44.5455 5.43151V49.5671C44.5455 50.734 43.0884 51.2645 42.3381 50.3709L30.9727 36.8338C30.5084 36.2808 29.6734 36.2351 29.1515 36.7342L23.1545 42.4693C22.6641 42.9382 21.8891 42.9303 21.4084 42.4514L15.698 36.7629C15.183 36.2499 14.3404 36.2829 13.8671 36.8347L2.19875 50.4368C1.44331 51.3175 0 50.7832 0 49.623Z" fill="url(#paint1_linear)"/>
<defs>
<linearGradient id="paint0_linear" x1="132.045" y1="0" x2="132.045" y2="55" gradientUnits="userSpaceOnUse">
<stop stop-color="#2DD4BF"/>
<stop offset="1" stop-color="#22D3EE"/>
</linearGradient>
<linearGradient id="paint1_linear" x1="21.902" y1="7.54545" x2="21.902" y2="53" gradientUnits="userSpaceOnUse">
<stop stop-color="#2DD4BF"/>
<stop offset="1" stop-color="#22D3EE"/>
</linearGradient>
</defs>
</svg>
